<svg width="158" height="169" viewBox="0 0 158 169" fill="none" xmlns="http://www.w3.org/2000/svg">
<path d="M72.9964 1.33337C66.4212 3.33337 62.664 8.40003 62.664 15.2C62.664 18.5334 63.6033 22.6667 64.9452 24.6667C66.2871 26.6667 67.0922 28.2667 66.8238 28.4C42.2677 40.5334 28.8491 57.7334 31.667 73.8667C32.7405 80.4 37.437 90 42.4019 95.8667L45.8908 100.133L43.7438 108.667C42.5361 113.333 41.5968 118.4 41.5968 119.867C41.5968 123.733 45.0857 126.533 52.0633 128.267L58.3701 129.867L51.6608 131.733C47.7694 132.8 39.1815 133.6 30.9961 133.467C15.028 133.467 12.0759 134.533 4.82981 142.8L0.133301 148.267L5.23237 155.867C8.05028 160 11.6733 164.533 13.2835 165.867C15.8331 168.267 16.2356 168.267 18.5168 166.267C19.9928 164.933 26.7022 163.467 38.2422 162C58.6384 159.467 67.0922 157.2 74.0699 152.667L79.0347 149.333L83.8654 152.133C90.9773 156.4 99.6994 158.667 118.485 161.333C128.952 162.8 137.003 164.667 139.15 166.133L142.773 168.4L148.141 162.4C151.227 159.067 154.716 154.533 155.923 152.4C158.205 148.4 158.205 148.267 154.447 143.067C148.677 135.2 143.578 133.333 128.549 133.6C115.131 134 99.0285 131.067 103.993 129.2C105.469 128.667 108.69 127.467 111.105 126.667C117.815 124.133 118.351 121.733 115.265 110.667L112.447 100.933L115.265 97.4667C121.035 90.1334 125.061 82.2667 126.537 75.3334C127.744 69.2 127.61 66.9334 125.597 60.4C121.974 48.9334 109.495 37.3334 91.514 28.4C91.2457 28.2667 91.9166 26.8 92.9901 25.0667C99.6994 14.4 94.0636 2.13337 81.7185 0.666701C79.1689 0.400034 75.2775 0.666701 72.9964 1.33337ZM84.5364 12C86.0124 13.4667 87.2201 15.6 87.2201 16.6667C87.2201 19.4667 82.3894 24 79.4373 24C75.4117 24 72.1912 20.6667 72.1912 16.6667C72.1912 9.8667 79.5715 7.0667 84.5364 12ZM87.891 35.8667C96.3447 39.7334 109.629 50.1334 113.521 56C120.23 66.1334 118.62 80.9334 110.166 85.8667C101.712 90.6667 59.4436 91.2 49.2454 86.5334C41.731 83.0667 38.108 69.4667 42.4019 60.5334C47.6352 49.4667 69.5075 33.3334 79.0347 33.3334C80.9133 33.3334 84.9389 34.5334 87.891 35.8667ZM104.933 101.333L104.396 106H79.1689H53.9419L53.4052 101.333L53.0026 96.6667H79.1689H105.335L104.933 101.333ZM104.53 114.667C108.287 116.533 108.153 119.467 104.396 120.4C98.4917 121.867 67.4947 123.067 59.8461 122.133C52.0633 121.067 49.1112 118.667 52.1975 115.6C55.5522 112.267 98.4917 111.333 104.53 114.667ZM88.0252 132.667C97.0157 139.067 103.859 140.933 123.45 142.533C137.942 143.733 140.492 144.267 142.505 146.8C144.383 148.933 144.518 150.133 143.444 152.267C142.102 154.667 141.163 154.8 131.77 154C104.664 151.733 88.9645 147.467 82.6578 140.667L79.4373 137.2L75.9485 140.667C71.3861 145.2 63.0666 148.8 53.0026 150.533C38.5105 152.933 17.7117 154.933 16.2356 154C15.4305 153.6 14.7596 151.733 14.7596 149.867C14.7596 145.067 20.5296 143.2 37.5712 142.267C55.1496 141.2 60.5171 139.733 69.7759 133.2C73.8015 130.4 78.0954 128 79.3031 128C80.3766 128 84.4022 130.133 88.0252 132.667Z" fill="black"/>
<path d="M74.7067 52.9334C74.2908 57.3334 73.7363 58 70.548 58.4C67.0824 58.8 66.6665 59.4667 66.6665 63.4667C66.6665 67.6 66.9438 68 70.8252 68C74.7067 68 74.984 68.2667 74.984 73.3334C74.984 78.4 75.2612 78.6667 79.1427 78.6667C83.0241 78.6667 83.3014 78.4 83.3014 73.4667C83.3014 68.5334 83.5786 68.1334 87.876 67.7334C91.7575 67.3334 92.312 66.8 92.7278 63.0667C93.1437 59.2 92.8665 58.8 88.5691 58.4C84.4104 58 83.9945 57.6 83.5786 52.9334C83.1628 48.5334 82.7469 48 79.1427 48C75.5384 48 75.1226 48.5334 74.7067 52.9334Z" fill="black"/>
</svg>
