<svg width="159" height="168" viewBox="0 0 159 168" fill="none" xmlns="http://www.w3.org/2000/svg">
<path d="M69.1675 2.8667C62.7268 6.86671 61.1166 16.0667 65.4104 24.2L67.4231 28.0667L61.2508 31C57.8962 32.6 50.7846 38.2 45.2832 43.5334C36.9639 51.6667 35.2196 54.0667 33.2068 60.7334C29.8523 72.2 32.4018 82.2 42.3312 96.0667C46.3566 101.667 46.4908 101.933 44.7465 108.067C40.5868 122.6 41.7945 126.333 51.5897 127.8C54.4075 128.333 56.6886 129.133 56.6886 129.533C56.6886 131.667 43.5388 133.667 30.389 133.667C14.0189 133.667 10.6643 134.867 4.62618 143.133L0.466553 148.733L5.69963 156.467C8.65163 160.733 12.4087 165.133 13.8847 166.2C16.4342 167.933 17.1051 167.933 19.9229 166.067C21.8014 164.867 30.9258 163 40.9894 161.667C62.5926 158.733 68.2282 157.267 74.6689 153L79.7678 149.533L84.0616 152.333C91.71 157 99.7609 159.133 118.815 161.667C131.562 163.267 138.137 164.733 139.881 166.333C141.76 168.067 142.967 168.2 145.114 167.133C147.664 165.667 158.667 151 158.667 148.867C158.667 146.867 151.421 138.6 147.395 136.2C144.041 134.2 140.686 133.667 129.549 133.667C115.997 133.667 102.31 131.533 102.31 129.4C102.31 128.867 103.786 128.333 105.665 128.333C110.361 128.333 116.668 124.867 117.607 121.933C118.01 120.733 117.204 115.533 115.728 110.467L113.179 101.4L118.412 93.8C131.428 74.7334 130.623 59.5334 115.594 44.4667C109.959 38.8667 98.8216 31 93.9911 29.2667C91.9783 28.6 92.1125 28.0667 94.5278 23.1334C98.0165 16.2 96.9431 9.40004 91.5758 4.0667C88.3554 0.866705 86.7453 0.333371 80.5729 0.333371C75.8766 0.333371 71.9853 1.2667 69.1675 2.8667ZM84.0616 11.8C86.6111 14.2 86.7453 15.5334 84.8667 19.1334C82.1831 24.0667 74.1322 21.5334 74.1322 15.6667C74.1322 10.0667 80.0362 7.80004 84.0616 11.8ZM83.7933 52.6C83.3907 57.5334 83.3907 57.6667 88.0871 57.6667C92.6493 57.6667 92.9176 57.9334 92.9176 62.2C92.9176 66.4667 92.5151 66.8667 88.6238 67.2667C84.4642 67.6667 84.1958 68.0667 84.1958 72.7334C84.1958 77.4 83.9275 77.6667 79.902 77.6667C75.6082 77.6667 75.474 77.4 75.474 72.3334C75.474 67.4 75.2057 67 71.5828 67C68.3624 67 67.6915 66.3334 67.1548 63C66.4839 58.2 66.7522 57.6667 71.7169 57.6667C75.2057 57.6667 75.474 57.2667 75.474 52.2C75.474 47 75.6082 46.8667 79.902 47.2667C84.0616 47.6667 84.1958 47.9334 83.7933 52.6ZM103.25 93.1334C103.652 94.3334 103.25 95.8 102.176 96.4667C100.029 97.9334 57.3595 97.5334 56.0177 96.0667C55.481 95.5334 55.3468 94.2 55.7493 93C57.0912 89.9334 102.042 89.9334 103.25 93.1334ZM101.505 106.467C104.323 107.533 104.189 110.467 101.371 111.667C100.029 112.2 91.3074 112.867 82.0489 113.267C60.9824 114.2 50.1137 111.4 57.7621 107.133C60.1773 105.667 98.0165 105.133 101.505 106.467Z" fill="black"/>
</svg>
