<svg width="149" height="161" viewBox="0 0 149 161" fill="none" xmlns="http://www.w3.org/2000/svg">
<path d="M69.8005 5.20002C68.1896 8.93336 66.9814 9.86669 63.491 10.2667C59.598 10.6667 59.061 11.2 58.6583 14.9334C58.2555 18.8 58.7925 19.4667 63.6253 22C69.9348 25.0667 71.143 30.1334 66.4444 32.6667C61.0746 35.4667 55.7049 44.6667 55.7049 50.9334C55.7049 56.2667 54.2282 58.2667 52.483 55.4667C50.4694 52.4 39.1928 48.6667 31.6752 48.6667C15.2974 48.6667 3.88661 57.6 1.47021 72.1334C-0.14072 81.0667 1.7387 86.5334 11.4043 101.333C20.8014 115.733 22.6808 120.667 24.6945 137.467C25.3657 142.667 26.5739 148.133 27.3793 149.6C29.393 153.6 38.7901 157.467 50.6036 159.333C64.6992 161.6 99.3343 160.4 109.268 157.333C120.276 154 123.498 150 124.572 138.667C126.049 124.133 128.868 115.867 136.117 104.933C145.112 91.2 148.333 83.8667 148.333 76.4C148.333 68.4 146.588 63.7334 141.218 58.2667C130.882 47.4667 116.115 45.0667 102.69 52.1334C98.663 54.2667 94.9042 56.1334 94.3672 56.4C93.696 56.6667 93.2933 53.4667 93.2933 49.3334C93.2933 42.2667 93.0248 41.6 87.2523 36.1334C79.8688 28.9334 79.6004 25.8667 85.9098 22C89.8029 19.6 90.6084 18.2667 90.6084 14.5334C90.6084 10.2667 90.3399 10 86.0441 10C82.0167 10 81.2113 9.46669 79.8688 5.33336C78.6606 1.73336 77.5867 0.666691 75.036 0.666691C72.4854 0.666691 71.143 1.73336 69.8005 5.20002ZM79.0634 40.8C82.9565 42.5334 85.2386 48.1334 85.2386 55.4667C85.2386 60.5334 77.8552 76.6667 75.1703 77.6C74.3648 77.8667 71.8142 74.5334 69.3978 70.1334C62.8198 58.1334 63.491 43.6 70.8745 40.6667C74.9018 39.0667 75.1703 39.0667 79.0634 40.8ZM42.8174 60C56.1076 66.2667 68.5923 83.4667 69.3978 96.6667L69.8005 102.667L62.4171 104.133C58.3898 104.933 48.5899 106 40.6695 106.533L26.1712 107.467L19.9959 99.0667C9.52487 84.9334 7.64545 77.2 12.7467 67.4667C15.0289 62.9334 17.848 60.8 26.1712 57.4667C29.393 56.2667 37.4477 57.4667 42.8174 60ZM127.66 59.2C134.238 62.1334 138.534 67.7334 139.742 74.9334C140.816 81.4667 138.399 87.4667 130.076 98.6667L123.767 107.2L115.578 106.667C111.014 106.267 102.825 105.733 97.1863 105.333C91.5481 105.067 85.2386 104.133 83.2249 103.333C79.7346 102 79.6004 101.467 80.2716 95.8667C81.2113 87.2 88.3262 73.6 95.0384 67.8667C102.019 61.8667 112.759 56.6667 118.128 56.6667C120.411 56.6667 124.572 57.8667 127.66 59.2ZM98.3945 114.667C109 115.6 117.994 116.8 118.397 117.067C119.068 117.733 116.652 135.2 115.846 136C115.578 136.267 111.282 135.467 106.046 134.267C89.5344 130.533 51.946 131.467 36.2395 136C33.8231 136.8 33.4203 135.867 31.9437 127.067C31.1382 121.733 30.6012 117.2 30.7355 116.933C31.0039 116.8 38.3874 116 47.1132 115.2C55.8391 114.4 65.5047 113.2 68.4581 112.667C71.4115 112 75.036 111.867 76.5127 112.133C77.9894 112.533 87.9235 113.6 98.3945 114.667ZM103.093 143.467C107.926 144.667 109.671 147.6 106.718 149.333C103.63 151.2 71.143 152.533 58.524 151.333C40.6695 149.6 37.3134 148 43.8914 144.533C50.0666 141.2 91.0111 140.533 103.093 143.467Z" fill="black"/>
</svg>
