<svg width="148" height="161" viewBox="0 0 148 161" fill="none" xmlns="http://www.w3.org/2000/svg">
<path d="M68.4631 5.20005C67.1207 9.46672 66.4495 10 62.2879 10C57.9921 10 57.7236 10.2667 57.7236 14.5334C57.7236 18.5334 58.3949 19.6 63.0934 22.1334C66.0467 23.8667 68.4631 26.1334 68.4631 27.2C68.4631 28.2667 65.644 32.1334 62.1537 35.6C56.5155 41.2 55.8442 42.6667 55.3073 49.3334C55.0388 53.3334 54.5018 56.6667 54.0991 56.6667C53.8306 56.6667 51.8169 55.4667 49.8033 53.8667C41.0775 47.4667 25.2367 46.5334 14.7657 52C9.39598 54.8 3.08654 62.5334 1.47562 68.2667C-1.61198 79.2 0.267426 85.6 11.6781 102.933C20.1355 115.6 22.4176 121.733 23.6258 135.733C24.9682 150.4 27.7873 153.733 42.1514 157.467C58.6633 161.867 97.1912 160.933 111.555 156C121.221 152.533 123.1 149.867 124.174 138.133C125.651 123.2 128.738 114.667 138.001 100.8C146.861 87.6 148.338 82.9334 147.398 72.5334C145.385 52.4 122.026 42.1334 102.024 52.4L94.2379 56.4L93.2982 49.0667C92.4927 42.6667 91.6873 41.0667 86.4518 36.1334C79.2026 29.2 78.9341 25.8667 85.2436 22C89.1366 19.6 89.9421 18.2667 89.9421 14.5334C89.9421 10.2667 89.6736 10 85.3778 10C81.4847 10 80.8135 9.46672 79.7396 5.60005C78.6656 2.13338 77.7259 1.20005 74.2356 0.933382C70.4768 0.533382 69.9398 1.06672 68.4631 5.20005ZM42.2856 59.3334C55.4415 65.6 64.7043 78 66.4495 91.3334C67.9262 102 68.3289 103.067 71.8192 103.867C77.3232 105.2 80.545 102.667 80.545 96.8C80.545 77.7334 100.01 56.6667 117.462 56.6667C130.349 56.6667 138.27 63.7334 138.27 75.2C138.27 84.9334 127.396 103.067 117.462 109.867C113.569 112.4 111.153 112.933 103.232 112.933C97.9967 112.8 89.2709 112.133 83.7669 111.333C76.7862 110.267 71.0138 110.267 64.0331 111.2C53.9648 112.667 45.5075 113.2 37.5871 112.8C33.6941 112.667 31.5462 111.2 24.834 104.267C10.8727 89.7334 6.0399 74.9334 11.9466 65.2C17.0479 56.9334 31.4119 54.1334 42.2856 59.3334ZM104.575 134.533C107.125 135.333 109.407 136.667 109.676 137.6C110.884 141.067 105.38 141.733 89.5394 140.4C78.7999 139.467 68.8659 139.467 58.1264 140.4C42.8226 141.733 37.5871 141.067 37.5871 137.867C37.5871 135.467 44.8363 133.733 58.3949 132.8C74.5041 131.6 98.2652 132.533 104.575 134.533Z" fill="black"/>
<path d="M24.6093 63.4667C19.1612 65.0667 14.6665 70.5334 14.6665 75.7334C14.6665 81.8667 19.8422 91.2001 27.6058 98.8001C33.7349 104.8 35.2332 105.6 41.9071 106.4C50.2155 107.333 59.3411 105.733 61.2479 103.067C64.1082 98.9334 59.6135 82.8001 53.4844 74.8001C45.9932 65.4667 34.2797 60.8 24.6093 63.4667Z" fill="black"/>
<path d="M111.611 63.3334C99.2142 66.1334 89.133 78.4 86.5445 93.7334C84.7735 104.533 86.9532 106.267 100.985 106.267C111.066 106.267 111.475 106.133 117.742 101.067C126.188 94.1334 133 83.0667 133 76.2667C133 72.4 132.046 70.1334 129.049 67.2C126.87 65.0667 123.872 63.3334 122.374 63.3334C120.875 63.3334 118.832 63.0667 117.742 62.8C116.788 62.5334 113.927 62.8 111.611 63.3334Z" fill="black"/>
</svg>
