<svg width="148" height="143" viewBox="0 0 148 143" fill="none" xmlns="http://www.w3.org/2000/svg">
<path d="M61.4142 5.20001L57.1182 10.4L49.8688 7.06668C45.8413 5.20001 39.6659 3.60001 36.3096 3.60001L30.1342 3.33335L30.4027 12.6667C30.6712 23.8667 29.0602 29.0667 15.7696 57.2C10.3996 68.5333 4.62695 81.7334 3.01597 86.8C0.0624956 95.4667 -0.071753 95.8667 2.34472 99.6C5.70094 105.2 10.6681 108.667 17.9176 110.667C22.2135 111.867 24.7643 112 26.3752 111.067C27.9862 110 28.7917 110.4 29.8657 112.533C30.6712 114.133 32.5507 115.467 34.1617 115.733C36.4439 116.133 38.4576 114.133 43.8276 106.267C47.4523 100.8 52.4195 94.8 54.836 92.8C59.6689 88.6667 69.4691 83.4667 70.4088 84.4C71.7513 85.7334 65.3074 97.7334 57.6552 108.4C53.225 114.4 48.7948 121.067 47.5865 123.333C45.9756 126.533 42.6193 139.333 42.6193 142C42.6193 142.4 65.8444 142.667 94.1708 142.667H145.588L146.528 136.533C149.481 114.267 143.843 78.4 134.311 59.3333C122.497 36 105.313 20.9333 87.7269 18.8C81.4172 18 81.0145 17.7333 79.2692 12.4C77.3898 6.80001 70.9458 1.29044e-05 67.4554 1.29044e-05C66.3814 1.29044e-05 63.6964 2.40001 61.4142 5.20001ZM89.3379 31.3333C103.3 35.4667 122.095 57.6 128.807 78C132.834 90.1334 135.251 105.333 135.251 118.533C135.251 128.133 133.237 132.667 129.613 131.333C126.793 130.267 125.854 126.533 125.854 115.2C125.854 102.667 122.632 84.4 118.604 74.6667C111.355 57.0667 96.5873 41.2 82.894 36.4C76.45 34.1333 74.4363 31.6 77.9268 30.2667C80.6117 29.0667 82.0885 29.2 89.3379 31.3333ZM50.2715 42.2667C50.6743 43.2 48.5263 46.4 45.7071 49.3333C41.8138 53.6 39.5316 54.9333 35.9069 55.0667C29.0602 55.4667 28.7917 50.8 35.1014 44.5333C39.1289 40.5333 40.6056 39.8667 44.7673 40.2667C47.5865 40.5333 50.003 41.3333 50.2715 42.2667ZM15.7696 90.4C15.7696 93.7334 12.9504 97.0667 9.7284 97.6C7.58042 97.8667 7.17768 97.3334 7.44618 94.6667C7.98317 89.2 15.7696 85.2 15.7696 90.4Z" fill="black"/>
</svg>
