<svg width="147" height="143" viewBox="0 0 147 143" fill="none" xmlns="http://www.w3.org/2000/svg">
<path d="M62.3548 4.00001C60.4752 6.13335 58.73 8.53335 58.4615 9.33335C58.193 10.2667 55.3737 9.60001 50.9434 7.33335C47.1844 5.46668 40.8745 3.46668 37.1155 3.06668L30.2687 2.26668L31.2084 10.4C32.2825 19.7333 30.4029 27.7333 23.2876 42.9333C10.668 70.2667 5.16369 82.6667 3.14992 88.9334L0.733398 96L4.62669 101.333C8.92273 107.333 15.9038 111.2 20.7368 110.267C23.0191 109.867 25.0329 110.667 27.3152 112.933C32.551 118.133 36.847 116.667 42.8883 108C45.7076 104 50.2721 98.4 53.0914 95.6C58.193 90.2667 69.0673 83.2 70.2756 84.4C71.8866 86 68.3961 93.2 59.4012 106.667C49.6009 121.067 43.9623 133.2 43.9623 139.333V142.667H94.8436H145.725L146.665 132.933C147.873 120.4 145.456 94.4 141.966 80.6667C136.864 61.0667 125.856 42.1333 112.833 30.6667C104.241 23.2 97.5286 19.8667 88.8023 19.0667C82.0897 18.4 81.5527 18 80.0759 13.7333C78.1964 7.86668 71.2153 1.29044e-05 68.1276 1.29044e-05C66.7851 1.29044e-05 64.2343 1.73335 62.3548 4.00001ZM44.2308 12.8L48.5269 14.9333L45.1706 16.8C40.2033 19.6 38.5923 19.0667 38.5923 14.6667C38.5923 10 38.7265 10 44.2308 12.8ZM70.8126 17.0667C74.8401 29.8667 74.1689 29.3333 84.6405 29.3333C91.7558 29.3333 95.1121 30 98.4684 32.1333C105.852 36.6667 118.069 51.0667 124.11 62.1333C132.837 78.4 135.387 89.2 136.193 112.933L136.998 133.2L96.4546 133.6C64.2343 133.867 56.0449 133.6 56.0449 132.267C56.0449 129.733 61.0122 120.533 67.9933 110C77.3909 96 80.2102 88.8 80.2102 78.6667C80.2102 75.3334 81.6869 67.7333 83.4322 61.8667C86.9227 50.2667 86.7885 47.3333 82.761 49.3333C79.4047 51.2 74.0346 60.6667 72.1551 68C70.8126 73.3334 69.8728 74.5334 64.5028 77.3334C56.3134 81.6 45.9761 91.2 39.2635 100.533C33.4907 108.4 30.9399 109.333 31.6112 103.333C32.014 99.8667 31.7455 99.7334 28.2549 100.533C18.0518 103.067 16.4408 102.933 12.6818 99.2C9.72824 96.4 9.05698 94.6667 9.72824 92.1334C10.131 90.1334 16.1723 76.9334 23.0191 62.6667C29.8659 48.4 36.31 34.8 37.2498 32.4C38.5923 28.9333 40.3375 27.6 46.2446 25.3333C58.0587 20.9333 64.1 17.4667 65.711 14C67.5906 9.86668 68.7988 10.6667 70.8126 17.0667Z" fill="black"/>
<path d="M39.0379 42.6667C34.4006 45.3333 32.0117 50.2667 33.5575 54C34.6817 56.9333 38.1948 56.5333 45.221 52.6667C50.9825 49.3333 54.0741 44.5333 51.9662 41.4667C50.5609 39.2 43.9563 39.7333 39.0379 42.6667Z" fill="black"/>
<path d="M15.1992 87.4666C11.9303 90.5333 12.9704 95.2 16.9822 95.7333C21.4397 96.2666 24.8572 90.5333 21.8855 87.3333C19.5081 84.8 18.1709 84.8 15.1992 87.4666Z" fill="black"/>
</svg>
