<svg width="105" height="143" viewBox="0 0 105 143" fill="none" xmlns="http://www.w3.org/2000/svg">
<path d="M45.4668 1.33335C35.2001 4.40001 30.0001 15.0667 33.3334 26.1333C35.0667 31.8667 35.0667 32.6667 33.2001 33.7333C28.0001 36.6667 22.0001 43.2 20.5334 47.6C17.3334 57.2 21.4667 70.9333 28.9334 75.2L33.0667 77.7334L28.5334 80C21.7334 83.6 11.7334 92.9334 8.00008 99.2C3.60008 106.667 0.666748 119.867 0.666748 132.267V142.667H52.8001H105.067L104.267 128.933C103.867 121.467 102.533 112.267 101.333 108.533C98.1334 99.0667 90.8001 89.8667 81.3334 83.4667L73.2001 78L78.8001 72.6667C85.0668 66.6667 86.8001 61.0667 85.3334 51.3333C84.5334 45.3333 78.5334 37.4667 72.2668 34C70.0001 32.8 70.0001 32.2667 72.0001 26.4C77.6001 10.2667 62.8001 -3.73332 45.4668 1.33335ZM56.8001 9.33335C59.2001 9.33335 63.3334 14.6667 63.3334 17.8667C63.3334 19.6 62.1334 23.6 60.8001 26.6667C59.3334 29.8667 58.5334 33.2 58.9334 34.1333C59.2001 35.0667 61.8668 37.3333 64.8001 39.3333C71.7334 43.8667 75.3334 49.8667 75.3334 57.0667C75.3334 63.0667 73.0668 66.1333 63.6001 73.7334C59.7334 76.8 61.3334 80 69.7334 85.7334C86.9334 97.6 93.8668 108.133 95.0668 124L95.7334 133.333H52.6668H9.60008L10.2667 124C11.4667 107.867 17.4667 99.0667 36.6667 84.9334C44.4001 79.2 44.9334 76 38.6668 71.0667C26.4001 61.6 27.2001 48.6667 40.5334 39.2C46.4001 34.9333 47.3334 31.3333 44.0001 25.3333C39.0668 16.6667 45.0668 6.53335 53.7334 8.80001C54.8001 9.06668 56.1334 9.33335 56.8001 9.33335Z" fill="black"/>
</svg>
