<svg width="169" height="157" viewBox="0 0 169 157" fill="none" xmlns="http://www.w3.org/2000/svg">
<path d="M74.9774 4.53331C70.5512 9.06664 70.1488 12.5333 73.2337 20.8C76.0504 28.4 76.0504 47.2 73.0996 60.5333C72.0266 66 70.8194 70.6666 70.5512 70.9333C69.8805 71.6 61.8329 50.8 59.6868 42.4C58.2114 36.9333 57.809 31.8666 58.4797 25.2C59.2845 16.5333 59.0162 15.6 55.7971 11.7333C47.3471 1.73331 32.1907 6.9333 32.1907 20C32.1907 24.6666 32.9954 26.8 36.3486 30.5333C38.4947 33.0666 40.909 37.2 41.7137 39.6C43.055 44.5333 43.3233 58.8 42.1161 66.4L41.1772 71.4666L37.4216 67.0666C28.5692 57.0666 26.289 51.4666 26.5573 41.6C26.8255 30.9333 24.6795 25.7333 18.912 23.3333C10.1937 19.8666 0 26.8 0 36.2666C0 40 1.07302 42.1333 5.23098 46.2666C9.52307 50.4 10.8643 53.0666 12.0715 59.0666C12.8763 63.2 15.1564 73.7333 17.0342 82.5333C20.2533 96.8 21.1922 98.8 26.1549 104.533C38.3605 118.133 39.1653 120.667 35.0073 130.267C31.2518 138.933 30.3129 146.133 32.593 149.2C35.4097 153.067 49.0907 155.333 75.7822 156.267C101.266 157.067 124.202 155.333 132.384 152C136.944 150.133 137.481 148.667 136.81 140C136.676 137.867 135.335 133.867 133.994 131.067C129.299 121.867 130.238 119.2 142.98 103.6C148.748 96.6666 151.698 87.0666 156.259 61.4666C157.734 53.0666 158.539 51.3333 163.636 46.2666C168.867 41.0666 169.269 40.2666 168.599 35.2C167.257 24.9333 156.929 19.0666 149.15 24.1333C143.114 28 142.175 30.1333 142.31 40.1333C142.578 50.6666 140.298 56.2666 132.384 65.7333C127.958 70.9333 127.69 71.0666 126.885 68.2666C125.544 63.2 125.946 44 127.555 39.2C128.494 36.6666 130.909 32.2666 132.921 29.4666C138.017 22.5333 138.017 16.6666 133.055 11.2C129.836 7.73331 128.226 6.93331 123.398 6.93331C118.435 6.93331 116.959 7.59998 113.606 11.3333C109.851 15.6 109.716 16.1333 110.521 24.6666C111.46 35.0666 108.509 48.5333 102.205 62.8C97.645 72.9333 97.7791 72.9333 94.56 54.8C91.8775 39.3333 92.0116 35.2 95.3648 22.6666C97.645 14 97.7791 11.6 96.4378 8.39998C92.8164 -0.266691 81.8179 -2.26669 74.9774 4.53331ZM89.5973 12.1333C90.1338 17.2 87.183 20 82.4885 18.8C79.806 18.1333 79.1354 17.2 79.1354 13.4666C79.1354 7.99998 80.0742 7.06664 85.1711 7.59998C88.5243 7.99998 89.1949 8.66664 89.5973 12.1333ZM48.8225 15.7333C50.432 16.9333 51.1027 18.8 50.7003 21.3333C50.432 24.6666 49.6273 25.4666 46.2741 25.7333C43.7256 26.1333 41.8478 25.4666 40.6407 23.8666C38.3605 20.6666 38.3605 19.8666 41.5796 16.6666C44.7987 13.4666 45.6034 13.4666 48.8225 15.7333ZM126.617 15.7333C128.226 16.9333 128.897 18.8 128.494 21.3333C128.092 24.9333 127.555 25.3333 123.532 25.3333C117.63 25.3333 115.35 20.6666 119.374 16.6666C122.459 13.6 123.398 13.4666 126.617 15.7333ZM17.1683 31.6C19.8509 34.2666 19.1803 40.4 16.0953 41.3333C11.1326 42.9333 8.04766 40.9333 8.04766 36C8.04766 33.6 8.85243 31.2 9.79132 30.9333C12.7421 29.7333 15.5588 30 17.1683 31.6ZM159.344 31.6C162.965 35.2 160.283 42 155.454 42C152.637 42 148.882 38.5333 148.882 36C148.882 31.3333 155.991 28.2666 159.344 31.6ZM53.6511 50.9333C53.6511 54.1333 61.6988 69.6 66.6615 76L71.4901 82.4L73.9044 79.2C76.7211 75.6 83.1592 56.8 83.1592 52.1333C83.1592 44.9333 85.1711 48.1333 87.9878 59.7333C90.9386 72 95.7672 82.6666 97.9132 81.3333C100.462 79.7333 109.046 65.6 113.338 56L118.032 45.3333V54C118.032 63.0666 121.117 84.1333 122.593 85.6C122.995 86 128.897 80.9333 135.603 74.1333C142.31 67.4666 147.406 63.0666 147.004 64.2666C146.602 65.6 145.26 71.2 144.053 76.6666C142.041 86.1333 138.956 94 137.347 94C137.079 94 134.262 92.6666 131.177 91.2C111.058 80.9333 61.967 80.8 39.2994 90.8C33.8002 93.2 31.3859 93.6 30.0446 92.5333C29.1057 91.8666 27.0938 85.6 25.4843 78.9333C24.0089 72.1333 22.3993 65.7333 21.9969 64.4C21.5946 63.2 26.8255 67.7333 33.5319 74.4C40.2383 80.9333 46.0058 86 46.4082 85.6C47.8836 84.1333 50.9685 63.0666 50.9685 54C50.9685 47.8666 51.3709 45.8666 52.3098 47.3333C52.9804 48.4 53.6511 50.1333 53.6511 50.9333ZM96.572 92.6666C105.022 93.4666 114.411 94.6666 117.362 95.4666C122.459 96.8 127.421 100 127.421 102C127.421 102.4 108.107 102.8 84.5005 102.933C60.894 102.933 41.5796 102.533 41.5796 101.867C41.5796 100.133 47.3471 96.6666 52.9804 95.0666C55.9313 94.2666 63.1742 93.2 69.0758 92.6666C74.9774 92.1333 80.0742 91.6 80.4766 91.6C80.879 91.4666 88.1219 92 96.572 92.6666ZM114.277 112.267C123.263 113.067 123.398 113.067 122.324 116.533C121.788 118.4 121.386 121.867 121.52 124V128.133L114.813 127.2C111.058 126.667 97.3767 126.133 84.5005 126.133C71.6242 126.133 57.9432 126.667 54.1876 127.2L47.4812 128.133V124C47.6153 121.867 47.0788 118.4 46.5423 116.4C45.6034 112.933 45.7376 112.8 51.9074 112.267C63.4424 111.467 105.156 111.333 114.277 112.267ZM118.971 136.667C124.336 138.533 125.544 141.467 121.788 143.467C114.813 147.2 64.2472 147.867 50.7003 144.533C45.4693 143.2 43.7256 139.333 47.213 137.2C52.3098 134 110.387 133.6 118.971 136.667Z" fill="black"/>
</svg>
