<svg width="170" height="156" viewBox="0 0 170 156" fill="none" xmlns="http://www.w3.org/2000/svg">
<path d="M76.7171 3.06669C72.0226 6.66669 71.2178 12.1334 74.0345 21.0667C77.1195 30.8 76.9853 44.1334 73.9004 60L71.6202 72L68.5353 65.3334C62.0971 51.2 58.7439 38.9334 59.0122 30.6667C59.1463 26.2667 59.2804 21.0667 59.2804 19.0667C59.5487 10.4 49.6232 4.26669 41.039 7.86669C35.4056 10.1334 33.3937 12.9334 32.5889 19.0667C32.0524 23.4667 32.4548 24.9334 36.0763 28.9334C42.112 35.7334 42.9168 39.2 42.9168 56.4L42.7827 72L37.5517 66.2667C29.2357 57.0667 26.2849 49.8667 27.3579 40.9334C28.0286 34.6667 27.7603 32.5334 25.4802 28.9334C20.9198 21.6 13.811 20.1334 6.70222 24.9334C-1.61372 30.5334 -1.21134 41.6 7.37286 48C11.1284 50.9334 11.7991 52.4 12.6039 59.3334C13.1404 63.6 15.2864 73.8667 17.2983 81.8667C20.6515 94.8 21.9928 97.6 27.8945 104.933C31.5159 109.6 35.5398 115.333 36.7469 117.733C38.893 121.867 38.893 122.4 35.5398 131.467C29.7723 147.467 30.8453 149.333 47.6113 153.6C60.4876 156.8 108.505 156.8 123.26 153.6C139.087 150.133 141.099 146.267 134.66 131.067C132.649 126.267 131.575 121.733 131.978 119.867C132.38 118.267 136.538 112.267 140.964 106.533C148.878 96.6667 149.28 95.7334 153.036 80.4C155.048 71.6 157.194 61.3334 157.596 57.4667C158.401 51.7334 159.206 50.2667 162.827 48C172.082 42 171.546 28.4 161.888 23.8667C155.987 21.0667 151.158 22.1334 145.927 27.4667C142.037 31.3334 141.903 31.7334 142.842 39.8667C143.647 47.3334 143.245 49.2 140.428 54.8C138.55 58.4 134.929 63.7334 132.246 66.6667L127.552 72L127.149 64C126.21 43.3334 127.954 34.9334 133.856 29.4667C143.915 20.5334 132.917 3.06669 120.04 7.33336C111.993 10 110.651 12.8 111.054 26.1334C111.322 36.4 110.92 39.6 107.432 50C105.152 56.6667 102.201 64.2667 100.86 66.9334L98.3117 71.7334L96.1657 59.7334C93.349 44.6667 93.2148 29.4667 95.8974 22C98.8482 13.7334 98.4458 8.26669 94.5561 4.13336C90.6664 -0.133311 81.6798 -0.666644 76.7171 3.06669ZM89.5934 8.93336C91.8736 11.2 91.6053 16 89.191 18C84.0941 22.1334 76.3147 14.4 80.4727 9.33336C82.4846 6.93336 87.3132 6.66669 89.5934 8.93336ZM51.2327 17.2C54.3177 21.8667 51.2327 26.2667 45.4652 25.7334C41.5755 25.3334 40.9049 24.8 40.5025 21.3334C40.1001 18.8 40.7708 16.9334 42.3803 15.7334C44.9287 13.8667 49.6232 14.6667 51.2327 17.2ZM127.954 15.7334C129.564 16.9334 130.234 18.8 129.832 21.3334C129.564 24.5334 128.759 25.4667 125.674 25.7334C118.431 26.5334 115.346 20 120.979 16.1334C124.601 13.6 125.003 13.6 127.954 15.7334ZM18.5055 31.6C20.7857 33.8667 20.5174 38.6667 18.1031 40.6667C15.4205 42.9334 9.78717 41.3334 8.71414 38C6.83635 32.1334 14.2134 27.3334 18.5055 31.6ZM160.145 32.1334C162.693 34.5334 162.827 35.8667 160.95 39.4667C158.267 44.4 150.219 41.8667 150.219 36C150.219 30.4 156.121 28.1334 160.145 32.1334ZM122.723 96.8C126.479 98.1334 128.222 99.6 128.491 101.467L128.893 104.4L85.3013 104.267C43.7216 104.133 41.5755 104 41.5755 101.733C41.5755 96.1334 56.1955 94 90.5323 94.5334C108.64 94.9334 119.102 95.6 122.723 96.8ZM117.224 125.867C120.04 126.533 123.394 128.133 124.601 129.2C126.344 131.067 126.344 131.6 124.735 133.2C122.991 134.8 119.37 134.933 103.274 134.133C92.5442 133.467 75.7782 133.467 65.8527 134.133C48.2819 135.333 44.2581 134.667 44.2581 131.2C44.2581 129.067 51.9034 126.133 60.4876 124.8C70.6813 123.2 109.713 124 117.224 125.867Z" fill="black"/>
</svg>
