<svg width="124" height="143" viewBox="0 0 124 143" fill="none" xmlns="http://www.w3.org/2000/svg">
<path d="M6.98479 3.73335C3.624 7.20002 3.35514 8.40002 3.35514 18.2667V29.0667L13.9752 38.2667L24.7298 47.3334V72L24.8642 96.6667L12.7654 108.667L0.666504 120.667V130C0.666504 135.6 1.33866 140.133 2.27968 141.067C3.48957 142.267 18.4115 142.667 61.1608 142.667C127.436 142.667 122.999 143.6 122.999 129.867V122L110.228 109.067L97.4573 96.1334V72.2667V48.2667L108.212 39.2L118.966 30V18.5334C118.966 7.86668 118.698 6.93335 115.202 3.60002C111.842 0.400017 110.497 1.69727e-05 101.356 1.69727e-05C90.0636 1.69727e-05 84.9552 2.66668 86.2995 8.00002C86.9716 10.2667 86.4339 10.6667 82.8043 10.6667C79.309 10.6667 78.6369 10.1334 78.6369 7.60002C78.6369 1.60002 74.8728 1.69727e-05 60.8919 1.69727e-05C47.0454 1.69727e-05 43.6846 1.60002 43.6846 7.73335C43.6846 10 42.8781 10.6667 40.3239 10.6667C37.6352 10.6667 36.9631 10 36.9631 7.60002C36.9631 1.86668 33.0645 1.69727e-05 21.369 1.69727e-05C11.2866 1.69727e-05 10.3456 0.266684 6.98479 3.73335ZM28.8972 13.7334C28.8972 18.5334 31.4514 20 39.7861 20C50.0029 20 51.7505 19.2 51.7505 14.5334V10.6667H61.1608C70.0333 10.6667 70.571 10.8 70.571 13.7334C70.571 18.6667 73.1252 20 82.9387 20C90.7357 20 92.2145 19.6 93.4244 17.2C94.3654 15.7334 94.6343 13.6 94.231 12.5334C93.6932 11.0667 95.172 10.6667 101.356 10.6667C110.363 10.6667 110.9 11.3334 110.9 21.0667C110.9 27.0667 110.632 27.6 102.835 33.6L94.9031 40H61.5641H28.225L20.1591 33.6C12.2276 27.2 12.0932 26.9334 12.0932 20.5334C12.2276 16.9334 12.6309 13.2 13.3031 12.2667C13.8408 11.3334 17.2016 10.6667 21.6378 10.6667C28.3594 10.6667 28.8972 10.9334 28.8972 13.7334ZM89.3914 70.6667V92L61.6985 91.7334L34.14 91.3334L33.8711 70.2667L33.6023 49.3334H61.5641H89.3914V70.6667ZM98.3983 106.933C102.297 110.8 105.523 114.267 105.523 114.667C105.523 115.067 85.7618 115.2 61.5641 114.933L17.6049 114.533L24.8642 107.333L32.1235 100H61.6985H91.2735L98.3983 106.933ZM114.933 128.667V133.333H61.8329H8.73241V128.667V124H61.8329H114.933V128.667Z" fill="black"/>
</svg>
