<svg width="123" height="142" viewBox="0 0 123 142" fill="none" xmlns="http://www.w3.org/2000/svg">
<path d="M9.34063 4.06672C6.11429 7.40005 5.71099 8.73339 5.71099 17.8001V27.8001L15.7933 37.6667L25.8757 47.5334V71.0001V94.3334L13.1047 107L0.333751 119.667V128.467C0.333751 142.6 -4.10247 141.667 61.7687 141.667C127.237 141.667 122.666 142.733 122.666 128.2V119.667L110.567 107.667L98.4684 95.6667V71.6667V47.5334L107.879 38.3334L117.289 29.1334V17.6667C117.289 7.40006 117.02 5.80005 114.197 3.26672C111.643 0.866716 109.492 0.333383 101.695 0.333383C91.6124 0.333383 89.0583 1.53339 89.0583 6.60006C89.0583 9.26672 88.3861 9.66672 84.3532 9.66672C80.3202 9.66672 79.6481 9.26672 79.6481 6.60006C79.6481 1.13339 77.3627 0.333383 62.172 0.333383C46.9813 0.333383 44.696 1.13339 44.696 6.60006C44.696 9.26672 44.0238 9.66672 39.9909 9.66672C36.3613 9.66672 35.2858 9.13339 35.2858 7.26672C35.2858 2.46672 30.984 0.333383 21.7083 0.333383C13.9113 0.333383 12.567 0.733383 9.34063 4.06672ZM89.0583 50.3334V55.0001L61.9032 54.7334L34.6137 54.3334L34.2104 49.9334L33.8071 45.6667H61.3655H89.0583V50.3334ZM89.0583 93.6667V97.6667H61.4999H33.9415V93.6667V89.6667H61.4999H89.0583V93.6667Z" fill="black"/>
</svg>
